<?xml version="1.0" encoding="utf-8"?>
<!-- Generator: Adobe Illustrator 27.1.1, SVG Export Plug-In . SVG Version: 6.00 Build 0)  -->
<svg version="1.1" id="Layer_1" xmlns="http://www.w3.org/2000/svg" xmlns:xlink="http://www.w3.org/1999/xlink" x="0px" y="0px"
	 viewBox="0 0 115.2 64.9" style="enable-background:new 0 0 115.2 64.9;" xml:space="preserve">
<style type="text/css">
	.st0{fill:#13290F;}
	.st1{fill:#F1FBFF;}
	.st2{fill:#BAF1F2;}
</style>
<path class="st0" d="M36.7,16.5c-0.3,17.3-22.9,17.3-23.2,0C13.8-0.8,36.4-0.8,36.7,16.5z"/>
<g>
	<path class="st1" d="M33.5,16.7C33.3,27,17.3,27,17.1,16.7C17.3,6.3,33.3,6.3,33.5,16.7z"/>
	<path class="st2" d="M33.6,16.7c0.2,8.2-8.6,11.4-14.3,5.9c-5.7-5.6-2.2-14.8,6-14.7C30.3,7.8,33.7,11.9,33.6,16.7L33.6,16.7z
		 M33.3,16.7c-0.1-6.4-8.9-8.5-13.2-4.9c-5.1,4.7-2.1,12.6,5.1,11.8C29.1,23.4,33.4,21,33.3,16.7L33.3,16.7z"/>
</g>
<path class="st0" d="M69.2,41.9c-0.3,17.3-22.9,17.3-23.2,0C46.3,24.6,68.9,24.6,69.2,41.9z"/>
<g>
	<path class="st1" d="M65.9,42.1c-0.2,10.3-16.2,10.3-16.4,0C49.7,31.7,65.8,31.7,65.9,42.1z"/>
	<path class="st2" d="M66,42.1c0.2,8.2-8.6,11.4-14.3,5.9c-5.7-5.6-2.2-14.8,6-14.7C62.8,33.2,66.2,37.3,66,42.1L66,42.1z
		 M65.8,42.1c-0.1-6.4-8.9-8.5-13.2-4.9c-5.1,4.7-2.1,12.6,5.1,11.8C61.6,48.8,65.9,46.4,65.8,42.1L65.8,42.1z"/>
</g>
<path class="st0" d="M88.3,19.5c-0.2,10.6-14.1,10.6-14.2,0C74.2,8.9,88.1,8.9,88.3,19.5z"/>
<g>
	<path class="st1" d="M86.2,19.6c-0.1,6.3-9.9,6.3-10.1,0C76.3,13.3,86.1,13.3,86.2,19.6z"/>
	<path class="st2" d="M86.3,19.6c0.1,5-5.3,7-8.8,3.6c-3.5-3.4-1.3-9.1,3.7-9C84.3,14.1,86.4,16.8,86.3,19.6L86.3,19.6z M86.2,19.6
		c-0.3-5.4-9.3-5.4-9.6,0C76,25.6,86.1,25,86.2,19.6L86.2,19.6z"/>
</g>
</svg>
