<?xml version="1.0" encoding="utf-8"?>
<!-- Generator: Adobe Illustrator 27.1.1, SVG Export Plug-In . SVG Version: 6.00 Build 0)  -->
<svg version="1.1" id="Layer_1" xmlns="http://www.w3.org/2000/svg" xmlns:xlink="http://www.w3.org/1999/xlink" x="0px" y="0px"
	 viewBox="0 0 59.7 16.2" style="enable-background:new 0 0 59.7 16.2;" xml:space="preserve">
<style type="text/css">
	.st0{fill:#13290F;}
	.st1{fill:#F1FBFF;}
	.st2{fill:#BAF1F2;}
</style>
<path class="st0" d="M20,8.1c-0.2,9.6-12.8,9.6-12.9,0C7.2-1.5,19.9-1.5,20,8.1z"/>
<g>
	<path class="st1" d="M18.2,8.2c-0.1,5.8-9,5.8-9.1,0C9.2,2.4,18.1,2.4,18.2,8.2z"/>
	<path class="st2" d="M18.3,8.2c0.1,2.6-1.9,5-4.6,4.8c-6.3-0.6-6.7-9.6,0-9.7C16.4,3.2,18.3,5.6,18.3,8.2L18.3,8.2z M18.1,8.2
		c-0.3-4.9-8.4-4.9-8.8,0C8.9,13.6,18,13.1,18.1,8.2L18.1,8.2z"/>
</g>
<path class="st0" d="M41.3,9.6c-0.2,4.3-12.8,4.3-12.9,0C28.5,5.3,41.1,5.3,41.3,9.6z"/>
<g>
	<path class="st1" d="M39.5,9.6c-0.1,2.6-9,2.6-9.1,0C30.5,7,39.4,7,39.5,9.6z"/>
	<path class="st2" d="M39.5,9.6c0,0.5-0.3,0.9-0.7,1.2c-1.9,1.5-4.5,1.3-6.6,0.6c-0.9-0.3-2-0.7-2.1-1.7C30.4,6.4,39.1,6.6,39.5,9.6
		L39.5,9.6z M39.4,9.6c0-2.2-8.7-2-8.9,0c0.3,1.8,3,1.7,4.4,1.6C36.3,11,39.1,11.4,39.4,9.6L39.4,9.6z"/>
</g>
</svg>
