<?xml version="1.0" encoding="utf-8"?>
<!-- Generator: Adobe Illustrator 27.1.1, SVG Export Plug-In . SVG Version: 6.00 Build 0)  -->
<svg version="1.1" id="Layer_1" xmlns="http://www.w3.org/2000/svg" xmlns:xlink="http://www.w3.org/1999/xlink" x="0px" y="0px"
	 viewBox="0 0 40.6 40.6" style="enable-background:new 0 0 40.6 40.6;" xml:space="preserve">
<style type="text/css">
	.st0{fill:#13290F;}
	.st1{fill:#F1FBFF;}
	.st2{fill:#BAF1F2;}
</style>
<path class="st0" d="M34.3,20.5C34,37.8,6,37.8,5.7,20.5C6,3.2,34,3.2,34.3,20.5z"/>
<g>
	<path class="st1" d="M30.3,20.7c-0.2,10.3-20,10.3-20.2,0C10.3,10.4,30.1,10.4,30.3,20.7z"/>
	<path class="st2" d="M30.4,20.7c-0.3,8.9-11,10.9-17.1,6.2C8.6,24,8,17,12.9,13.9C19,9.4,30.4,12,30.4,20.7L30.4,20.7z M30.2,20.7
		c-0.4-7.1-11.3-7.8-16.1-5c-2.7,1.5-4.3,5.2-2.7,8.2c1.6,3.1,5.6,3.9,8.8,3.6C24.3,27.2,30.1,25.8,30.2,20.7L30.2,20.7z"/>
</g>
</svg>
