<?xml version="1.0" encoding="utf-8"?>
<!-- Generator: Adobe Illustrator 27.1.1, SVG Export Plug-In . SVG Version: 6.00 Build 0)  -->
<svg version="1.1" id="Layer_1" xmlns="http://www.w3.org/2000/svg" xmlns:xlink="http://www.w3.org/1999/xlink" x="0px" y="0px"
	 viewBox="0 0 27 27" style="enable-background:new 0 0 27 27;" xml:space="preserve">
<style type="text/css">
	.st0{fill:#13290F;}
	.st1{fill:#F1FBFF;}
	.st2{fill:#BAF1F2;}
</style>
<path class="st0" d="M17.8,13.5c-0.1,6.4-8.5,6.4-8.6,0C9.3,7.1,17.7,7.1,17.8,13.5z"/>
<g>
	<path class="st1" d="M16.6,13.5c-0.1,3.8-6,3.8-6.1,0C10.6,9.7,16.5,9.7,16.6,13.5z"/>
	<path class="st2" d="M16.6,13.5c0,4.5-6,4-6.3,0C10.1,9.2,16.8,9.1,16.6,13.5L16.6,13.5z M16.5,13.5c-0.2-3.3-5.6-3.3-5.8,0
		C10.4,17.1,16.5,16.8,16.5,13.5L16.5,13.5z"/>
</g>
</svg>
