<?xml version="1.0" encoding="utf-8"?>
<!-- Generator: Adobe Illustrator 27.1.1, SVG Export Plug-In . SVG Version: 6.00 Build 0)  -->
<svg version="1.1" id="Layer_1" xmlns="http://www.w3.org/2000/svg" xmlns:xlink="http://www.w3.org/1999/xlink" x="0px" y="0px"
	 viewBox="0 0 25 25" style="enable-background:new 0 0 25 25;" xml:space="preserve">
<style type="text/css">
	.st0{fill:#13290F;}
	.st1{fill:#F1FBFF;}
	.st2{fill:#BAF1F2;}
</style>
<path class="st0" d="M22.4,12.6c-0.2,10.1-19.6,10.1-19.8,0C2.8,2.5,22.2,2.5,22.4,12.6z"/>
<g>
	<path class="st1" d="M19.6,12.7c-0.2,6.1-13.8,6.1-14,0C5.8,6.7,19.5,6.7,19.6,12.7z"/>
	<path class="st2" d="M19.7,12.7c-0.4,5.5-7.8,6.2-11.6,3.8c-3.6-1.7-3.8-6.1-0.2-8C11.8,6.3,19.3,7.3,19.7,12.7L19.7,12.7z
		 M19.5,12.7c-0.1-5.1-13.1-5-13.5,0c-0.1,3.3,4,4.3,6.6,3.9C15.2,16.4,19.3,16.1,19.5,12.7L19.5,12.7z"/>
</g>
</svg>
