<?xml version="1.0" encoding="utf-8"?>
<!-- Generator: Adobe Illustrator 27.1.1, SVG Export Plug-In . SVG Version: 6.00 Build 0)  -->
<svg version="1.1" id="Layer_1" xmlns="http://www.w3.org/2000/svg" xmlns:xlink="http://www.w3.org/1999/xlink" x="0px" y="0px"
	 viewBox="0 0 27.6 27.6" style="enable-background:new 0 0 27.6 27.6;" xml:space="preserve">
<style type="text/css">
	.st0{fill:#13290F;}
	.st1{fill:#F1FBFF;}
	.st2{fill:#BAF1F2;}
</style>
<path class="st0" d="M23.6,14.5c-0.2,9.3-19,9.3-19.2,0C4.6,5.2,23.4,5.2,23.6,14.5z"/>
<g>
	<path class="st1" d="M20.9,14.6c-0.1,5.6-13.4,5.6-13.5,0C7.5,9,20.8,9,20.9,14.6z"/>
	<path class="st2" d="M21,14.6c-0.5,5.2-7.5,5.7-11.2,3.5c-3.5-1.6-3.8-5.7-0.2-7.4C13.4,8.7,20.5,9.5,21,14.6L21,14.6z M20.8,14.6
		c-0.1-4.7-12.7-4.6-13.1,0c-0.1,3.2,3.9,3.9,6.4,3.6C16.6,18,20.6,17.8,20.8,14.6L20.8,14.6z"/>
</g>
</svg>
